<svg width="319.925px" height="82.4px" xmlns="http://www.w3.org/2000/svg" viewBox="90.0375 33.8 319.925 82.4" style="background: none;" preserveAspectRatio="xMidYMid"><defs><filter id="editing-hole" x="-100%" y="-100%" width="300%" height="300%"><feFlood flood-color="#5f5454" result="black"></feFlood><feMorphology operator="dilate" radius="2" in="SourceGraphic" result="erode"></feMorphology><feGaussianBlur in="erode" stdDeviation="4" result="blur"></feGaussianBlur><feOffset in="blur" dx="2" dy="2" result="offset"></feOffset><feComposite operator="atop" in="offset" in2="black" result="merge"></feComposite><feComposite operator="in" in="merge" in2="SourceGraphic" result="inner-shadow"></feComposite></filter></defs><g filter="url(#editing-hole)"><g transform="translate(139.43498945236206, 89.53999996185303)"><path d="M6.31 0L2.89 0L2.89-26.61L6.31-26.61L19.65-5.70L19.65-26.61L23.06-26.61L23.06 0L19.65 0L6.31-20.93L6.31 0ZM30.11-2.34L30.11-2.34L30.11-2.34Q27.31-5.25 27.31-9.50L27.31-9.50L27.31-9.50Q27.31-13.75 30.12-16.66L30.12-16.66L30.12-16.66Q32.93-19.58 37.33-19.58L37.33-19.58L37.33-19.58Q41.71-19.58 44.56-16.64L44.56-16.64L44.56-16.64Q47.41-13.71 47.41-9.50L47.41-9.50L47.41-9.50Q47.41-5.29 44.56-2.36L44.56-2.36L44.56-2.36Q41.71 0.58 37.33 0.58L37.33 0.58L37.33 0.58Q32.92 0.58 30.11-2.34ZM32.28-14.61L32.28-14.61L32.28-14.61Q30.37-12.54 30.37-9.50L30.37-9.50L30.37-9.50Q30.37-6.46 32.28-4.39L32.28-4.39L32.28-4.39Q34.18-2.32 37.33-2.32L37.33-2.32L37.33-2.32Q40.45-2.32 42.37-4.39L42.37-4.39L42.37-4.39Q44.29-6.46 44.29-9.50L44.29-9.50L44.29-9.50Q44.29-12.54 42.37-14.61L42.37-14.61L42.37-14.61Q40.45-16.68 37.33-16.68L37.33-16.68L37.33-16.68Q34.18-16.68 32.28-14.61ZM54.74-16.07L51.51-16.07L51.51-19L54.74-19L54.74-24.51L57.96-24.51L57.96-19L62.68-19L62.68-16.07L57.96-16.07L57.96-5.58L57.96-5.58Q57.96-4.17 58.40-3.55L58.40-3.55L58.40-3.55Q58.84-2.93 60.32-2.93L60.32-2.93L62.29-2.93L62.29 0L58.87 0L58.87 0Q57.02 0 55.88-0.98L55.88-0.98L55.88-0.98Q54.74-1.97 54.74-3.66L54.74-3.66L54.74-16.07ZM75.52-20.52L75.52-20.52L75.52-20.52Q75.52-23.45 78.04-25.31L78.04-25.31L78.04-25.31Q80.56-27.16 83.87-27.16L83.87-27.16L83.87-27.16Q86.41-27.16 88.93-26.00L88.93-26.00L88.93-26.00Q89.77-25.62 90.83-24.81L90.83-24.81L89.53-22.01L89.53-22.01Q88.69-22.66 87.78-23.14L87.78-23.14L87.78-23.14Q85.65-24.27 83.87-24.29L83.87-24.29L83.87-24.29Q81.94-24.29 80.43-23.30L80.43-23.30L80.43-23.30Q78.93-22.30 78.93-20.52L78.93-20.52L78.93-20.52Q78.93-19.80 79.22-19.19L79.22-19.19L79.22-19.19Q79.51-18.57 80.21-18.04L80.21-18.04L81.29-17.20L81.29-17.20Q81.66-16.92 82.71-16.38L82.71-16.38L82.71-16.38Q83.76-15.85 83.87-15.77L83.87-15.77L85.63-14.81L85.63-14.81Q86.91-14.10 87.37-13.79L87.37-13.79L88.77-12.86L88.77-12.86Q89.71-12.23 90.10-11.72L90.10-11.72L90.10-11.72Q90.49-11.21 90.98-10.46L90.98-10.46L90.98-10.46Q91.47-9.72 91.66-8.85L91.66-8.85L91.66-8.85Q91.85-7.98 91.85-6.92L91.85-6.92L91.85-6.92Q91.85-3.73 89.19-1.58L89.19-1.58L89.19-1.58Q86.54 0.58 83.11 0.58L83.11 0.58L83.11 0.58Q80.25 0.58 77.60-1.02L77.60-1.02L77.60-1.02Q76.43-1.71 75.52-2.65L75.52-2.65L76.83-5.51L76.83-5.51Q77.89-4.56 78.93-3.92L78.93-3.92L78.93-3.92Q81.36-2.32 83.11-2.32L83.11-2.32L83.11-2.32Q85.31-2.32 86.87-3.61L86.87-3.61L86.87-3.61Q88.43-4.90 88.43-6.92L88.43-6.92L88.43-6.92Q88.43-8.70 87.10-10.11L87.10-10.11L87.10-10.11Q85.78-11.52 83.87-12.49L83.87-12.49L80.06-14.47L80.06-14.47Q78.17-15.49 76.84-17.02L76.84-17.02L76.84-17.02Q75.52-18.55 75.52-20.52ZM95.95-9.57L95.95-9.57L95.95-9.57Q95.95-14.14 98.38-16.86L98.38-16.86L98.38-16.86Q100.81-19.58 104.80-19.58L104.80-19.58L104.80-19.58Q112.74-19.58 112.74-8.37L112.74-8.37L99.10-8.37L99.10-8.37Q99.29-6.01 100.83-4.17L100.83-4.17L100.83-4.17Q102.37-2.32 105.52-2.32L105.52-2.32L105.52-2.32Q109.18-2.32 111.79-3.53L111.79-3.53L111.79-0.54L111.79-0.54Q108.93 0.56 105.93 0.58L105.93 0.58L105.93 0.58Q103.31 0.58 101.35-0.24L101.35-0.24L101.35-0.24Q99.40-1.06 98.24-2.49L98.24-2.49L98.24-2.49Q97.08-3.92 96.51-5.70L96.51-5.70L96.51-5.70Q95.95-7.48 95.95-9.57ZM99.21-10.87L99.21-10.87L109.47-10.87L109.47-10.87Q109.21-13.42 108.06-15.05L108.06-15.05L108.06-15.05Q106.91-16.68 104.72-16.68L104.72-16.68L104.72-16.68Q102.55-16.68 101.03-15.08L101.03-15.08L101.03-15.08Q99.51-13.49 99.21-10.87ZM120.72 0L117.49 0L117.49-28.50L120.72-28.50L120.72 0ZM126.02-9.57L126.02-9.57L126.02-9.57Q126.02-14.14 128.45-16.86L128.45-16.86L128.45-16.86Q130.88-19.58 134.87-19.58L134.87-19.58L134.87-19.58Q142.82-19.58 142.82-8.37L142.82-8.37L129.18-8.37L129.18-8.37Q129.36-6.01 130.90-4.17L130.90-4.17L130.90-4.17Q132.44-2.32 135.60-2.32L135.60-2.32L135.60-2.32Q139.25-2.32 141.87-3.53L141.87-3.53L141.87-0.54L141.87-0.54Q139.01 0.56 136.01 0.58L136.01 0.58L136.01 0.58Q133.39 0.58 131.43-0.24L131.43-0.24L131.43-0.24Q129.47-1.06 128.31-2.49L128.31-2.49L128.31-2.49Q127.16-3.92 126.59-5.70L126.59-5.70L126.59-5.70Q126.02-7.48 126.02-9.57ZM129.29-10.87L129.29-10.87L139.55-10.87L139.55-10.87Q139.29-13.42 138.14-15.05L138.14-15.05L138.14-15.05Q136.99-16.68 134.80-16.68L134.80-16.68L134.80-16.68Q132.63-16.68 131.11-15.08L131.11-15.08L131.11-15.08Q129.59-13.49 129.29-10.87ZM149.73-2.38L149.73-2.38L149.73-2.38Q146.80-5.33 146.80-9.50L146.80-9.50L146.80-9.50Q146.80-13.67 149.73-16.63L149.73-16.63L149.73-16.63Q152.65-19.58 156.79-19.58L156.79-19.58L156.79-19.58Q159.33-19.58 161.93-19L161.93-19L161.93-16.11L161.93-16.11Q159.35-16.68 156.79-16.68L156.79-16.68L156.79-16.68Q153.89-16.68 151.91-14.57L151.91-14.57L151.91-14.57Q149.92-12.47 149.92-9.50L149.92-9.50L149.92-9.50Q149.92-6.53 151.92-4.43L151.92-4.43L151.92-4.43Q153.91-2.32 156.79-2.32L156.79-2.32L156.79-2.32Q159.33-2.32 161.93-2.89L161.93-2.89L161.93 0L161.93 0Q159.35 0.58 156.79 0.58L156.79 0.58L156.79 0.58Q152.65 0.58 149.73-2.38ZM169.11-16.07L165.88-16.07L165.88-19L169.11-19L169.11-24.51L172.34-24.51L172.34-19L177.05-19L177.05-16.07L172.34-16.07L172.34-5.58L172.34-5.58Q172.34-4.17 172.77-3.55L172.77-3.55L172.77-3.55Q173.21-2.93 174.69-2.93L174.69-2.93L176.66-2.93L176.66 0L173.25 0L173.25 0Q171.39 0 170.25-0.98L170.25-0.98L170.25-0.98Q169.11-1.97 169.11-3.66L169.11-3.66L169.11-16.07ZM180.78-9.57L180.78-9.57L180.78-9.57Q180.78-14.14 183.21-16.86L183.21-16.86L183.21-16.86Q185.64-19.58 189.63-19.58L189.63-19.58L189.63-19.58Q197.57-19.58 197.57-8.37L197.57-8.37L183.93-8.37L183.93-8.37Q184.12-6.01 185.66-4.17L185.66-4.17L185.66-4.17Q187.20-2.32 190.35-2.32L190.35-2.32L190.35-2.32Q194.01-2.32 196.62-3.53L196.62-3.53L196.62-0.54L196.62-0.54Q193.77 0.56 190.76 0.58L190.76 0.58L190.76 0.58Q188.14 0.58 186.19-0.24L186.19-0.24L186.19-0.24Q184.23-1.06 183.07-2.49L183.07-2.49L183.07-2.49Q181.91-3.92 181.34-5.70L181.34-5.70L181.34-5.70Q180.78-7.48 180.78-9.57ZM184.04-10.87L184.04-10.87L194.30-10.87L194.30-10.87Q194.04-13.42 192.89-15.05L192.89-15.05L192.89-15.05Q191.74-16.68 189.55-16.68L189.55-16.68L189.55-16.68Q187.38-16.68 185.86-15.08L185.86-15.08L185.86-15.08Q184.34-13.49 184.04-10.87ZM201.56-10.15L201.56-10.15L201.56-10.15Q201.56-12.65 202.39-14.72L202.39-14.72L202.39-14.72Q203.23-16.79 205.13-18.18L205.13-18.18L205.13-18.18Q207.03-19.58 209.65-19.58L209.65-19.58L209.65-19.58Q212.38-19.58 215.01-18.09L215.01-18.09L215.01-28.50L218.24-28.50L218.24 0L215.96 0L215.49-1.41L215.49-1.41Q212.95 0.56 209.98 0.58L209.98 0.58L209.98 0.58Q206.46 0.58 204.01-2.58L204.01-2.58L204.01-2.58Q201.56-5.73 201.56-10.15ZM204.79-10.45L204.79-10.45L204.79-10.45Q204.79-7.14 206.38-4.75L206.38-4.75L206.38-4.75Q207.98-2.36 210.48-2.36L210.48-2.36L210.48-2.36Q212.88-2.36 215.01-3.80L215.01-3.80L215.01-15.38L215.01-15.38Q212.58-16.83 209.91-16.83L209.91-16.83L209.91-16.83Q207.59-16.83 206.19-15.14L206.19-15.14L206.19-15.14Q204.79-13.45 204.79-10.45Z" fill="#313236"></path></g></g><style>text {
  font-size: 64px;
  font-family: Arial Black;
  dominant-baseline: central;
  text-anchor: middle;
}</style></svg>