<svg width="20" height="18" viewBox="0 0 20 18" fill="none" xmlns="http://www.w3.org/2000/svg">
<path d="M17.3665 2.84167C16.9409 2.41584 16.4356 2.07804 15.8793 1.84757C15.3231 1.6171 14.7269 1.49848 14.1249 1.49848C13.5228 1.49848 12.9266 1.6171 12.3704 1.84757C11.8142 2.07804 11.3088 2.41584 10.8832 2.84167L9.99987 3.725L9.11654 2.84167C8.2568 1.98193 7.09074 1.49893 5.87487 1.49893C4.65901 1.49893 3.49295 1.98193 2.63321 2.84167C1.77347 3.70141 1.29047 4.86748 1.29047 6.08334C1.29047 7.2992 1.77347 8.46526 2.63321 9.325L3.51654 10.2083L9.99987 16.6917L16.4832 10.2083L17.3665 9.325C17.7924 8.89937 18.1302 8.39401 18.3606 7.8378C18.5911 7.28158 18.7097 6.68541 18.7097 6.08334C18.7097 5.48126 18.5911 4.88509 18.3606 4.32887C18.1302 3.77266 17.7924 3.2673 17.3665 2.84167V2.84167Z" stroke="#d1b5ca" stroke-width="1.5" stroke-linecap="round" stroke-linejoin="round"/>
</svg>
