<svg width="21" height="18" viewBox="0 0 21 18" fill="none" xmlns="http://www.w3.org/2000/svg">
<path d="M20.4608 2.80832C19.7121 3.138 18.9188 3.35561 18.1067 3.45416C18.9618 2.9402 19.602 2.1342 19.9092 1.18499C19.1167 1.64749 18.2383 1.98416 17.3033 2.17166C16.6865 1.51202 15.8691 1.07451 14.978 0.927076C14.087 0.779643 13.1722 0.930533 12.3758 1.35632C11.5793 1.7821 10.9457 2.45895 10.5734 3.28176C10.201 4.10457 10.1108 5.0273 10.3167 5.90666C6.90833 5.74582 3.88917 4.10832 1.86667 1.63499C1.49899 2.25984 1.30722 2.97251 1.31167 3.69749C1.31167 5.12249 2.03667 6.37499 3.135 7.11082C2.48405 7.0901 1.84748 6.9141 1.27833 6.59749V6.64749C1.27796 7.59448 1.60522 8.51244 2.20459 9.24562C2.80395 9.9788 3.63851 10.4821 4.56667 10.67C3.96525 10.8311 3.33534 10.8553 2.72333 10.7408C2.98677 11.5558 3.49805 12.2683 4.18585 12.7787C4.87364 13.2892 5.70363 13.5722 6.56 13.5883C5.10961 14.7266 3.31873 15.3444 1.475 15.3425C1.15 15.3425 0.825833 15.3233 0.5 15.2867C2.37976 16.4903 4.56543 17.1292 6.7975 17.1275C14.3417 17.1275 18.4625 10.8808 18.4625 5.47332C18.4625 5.29832 18.4625 5.12332 18.45 4.94832C19.255 4.36904 19.9494 3.64984 20.5 2.82499L20.4608 2.80832Z" fill="black" fill-opacity="0.9"/>
</svg>
